<mxfile host="app.diagrams.net" agent="Mozilla/5.0 (Macintosh; Intel Mac OS X 10_15_7) AppleWebKit/537.36 (KHTML, like Gecko) Chrome/130.0.0.0 Safari/537.36" version="24.8.6">
  <diagram id="C5RBs43oDa-KdzZeNtuy" name="Page-1">
    <mxGraphModel dx="1026" dy="1789" grid="1" gridSize="10" guides="1" tooltips="1" connect="1" arrows="1" fold="1" page="1" pageScale="1" pageWidth="827" pageHeight="1169" math="0" shadow="0">
      <root>
        <mxCell id="WIyWlLk6GJQsqaUBKTNV-0" />
        <mxCell id="WIyWlLk6GJQsqaUBKTNV-1" parent="WIyWlLk6GJQsqaUBKTNV-0" />
        <mxCell id="Q-2vObClX6s92BMSqMV8-4" value="" style="edgeStyle=orthogonalEdgeStyle;rounded=0;orthogonalLoop=1;jettySize=auto;html=1;" edge="1" parent="WIyWlLk6GJQsqaUBKTNV-1" source="Q-2vObClX6s92BMSqMV8-0" target="Q-2vObClX6s92BMSqMV8-1">
          <mxGeometry relative="1" as="geometry" />
        </mxCell>
        <mxCell id="Q-2vObClX6s92BMSqMV8-0" value="Start" style="ellipse;whiteSpace=wrap;html=1;" vertex="1" parent="WIyWlLk6GJQsqaUBKTNV-1">
          <mxGeometry x="340" y="-30" width="120" height="80" as="geometry" />
        </mxCell>
        <mxCell id="Q-2vObClX6s92BMSqMV8-5" value="" style="edgeStyle=orthogonalEdgeStyle;rounded=0;orthogonalLoop=1;jettySize=auto;html=1;" edge="1" parent="WIyWlLk6GJQsqaUBKTNV-1" source="Q-2vObClX6s92BMSqMV8-1" target="Q-2vObClX6s92BMSqMV8-2">
          <mxGeometry relative="1" as="geometry" />
        </mxCell>
        <mxCell id="Q-2vObClX6s92BMSqMV8-1" value="Nháº­p a,b" style="shape=parallelogram;perimeter=parallelogramPerimeter;whiteSpace=wrap;html=1;fixedSize=1;" vertex="1" parent="WIyWlLk6GJQsqaUBKTNV-1">
          <mxGeometry x="340" y="120" width="120" height="60" as="geometry" />
        </mxCell>
        <mxCell id="Q-2vObClX6s92BMSqMV8-6" value="" style="edgeStyle=orthogonalEdgeStyle;rounded=0;orthogonalLoop=1;jettySize=auto;html=1;" edge="1" parent="WIyWlLk6GJQsqaUBKTNV-1" source="Q-2vObClX6s92BMSqMV8-2" target="Q-2vObClX6s92BMSqMV8-3">
          <mxGeometry relative="1" as="geometry" />
        </mxCell>
        <mxCell id="Q-2vObClX6s92BMSqMV8-8" value="" style="edgeStyle=orthogonalEdgeStyle;rounded=0;orthogonalLoop=1;jettySize=auto;html=1;" edge="1" parent="WIyWlLk6GJQsqaUBKTNV-1" source="Q-2vObClX6s92BMSqMV8-2" target="Q-2vObClX6s92BMSqMV8-7">
          <mxGeometry relative="1" as="geometry" />
        </mxCell>
        <mxCell id="Q-2vObClX6s92BMSqMV8-2" value="+" style="rhombus;whiteSpace=wrap;html=1;" vertex="1" parent="WIyWlLk6GJQsqaUBKTNV-1">
          <mxGeometry x="360" y="240" width="80" height="80" as="geometry" />
        </mxCell>
        <mxCell id="Q-2vObClX6s92BMSqMV8-3" value="a+b" style="rounded=0;whiteSpace=wrap;html=1;" vertex="1" parent="WIyWlLk6GJQsqaUBKTNV-1">
          <mxGeometry x="340" y="410" width="120" height="60" as="geometry" />
        </mxCell>
        <mxCell id="Q-2vObClX6s92BMSqMV8-10" value="" style="edgeStyle=orthogonalEdgeStyle;rounded=0;orthogonalLoop=1;jettySize=auto;html=1;" edge="1" parent="WIyWlLk6GJQsqaUBKTNV-1" source="Q-2vObClX6s92BMSqMV8-7" target="Q-2vObClX6s92BMSqMV8-9">
          <mxGeometry relative="1" as="geometry" />
        </mxCell>
        <mxCell id="Q-2vObClX6s92BMSqMV8-12" value="" style="edgeStyle=orthogonalEdgeStyle;rounded=0;orthogonalLoop=1;jettySize=auto;html=1;" edge="1" parent="WIyWlLk6GJQsqaUBKTNV-1" source="Q-2vObClX6s92BMSqMV8-7" target="Q-2vObClX6s92BMSqMV8-11">
          <mxGeometry relative="1" as="geometry" />
        </mxCell>
        <mxCell id="Q-2vObClX6s92BMSqMV8-7" value="&lt;p style=&quot;line-height: 120%;&quot;&gt;&lt;font style=&quot;font-size: 18px;&quot;&gt;-&lt;/font&gt;&lt;/p&gt;" style="rhombus;whiteSpace=wrap;html=1;" vertex="1" parent="WIyWlLk6GJQsqaUBKTNV-1">
          <mxGeometry x="520" y="240" width="80" height="80" as="geometry" />
        </mxCell>
        <mxCell id="Q-2vObClX6s92BMSqMV8-9" value="a-b" style="whiteSpace=wrap;html=1;" vertex="1" parent="WIyWlLk6GJQsqaUBKTNV-1">
          <mxGeometry x="500" y="410" width="120" height="60" as="geometry" />
        </mxCell>
        <mxCell id="Q-2vObClX6s92BMSqMV8-14" value="" style="edgeStyle=orthogonalEdgeStyle;rounded=0;orthogonalLoop=1;jettySize=auto;html=1;" edge="1" parent="WIyWlLk6GJQsqaUBKTNV-1" source="Q-2vObClX6s92BMSqMV8-11">
          <mxGeometry relative="1" as="geometry">
            <mxPoint x="720" y="410" as="targetPoint" />
          </mxGeometry>
        </mxCell>
        <mxCell id="Q-2vObClX6s92BMSqMV8-16" value="" style="edgeStyle=orthogonalEdgeStyle;rounded=0;orthogonalLoop=1;jettySize=auto;html=1;" edge="1" parent="WIyWlLk6GJQsqaUBKTNV-1" source="Q-2vObClX6s92BMSqMV8-11" target="Q-2vObClX6s92BMSqMV8-15">
          <mxGeometry relative="1" as="geometry" />
        </mxCell>
        <mxCell id="Q-2vObClX6s92BMSqMV8-11" value="&lt;p style=&quot;line-height: 120%;&quot;&gt;&lt;span style=&quot;font-size: 18px;&quot;&gt;*&lt;/span&gt;&lt;/p&gt;" style="rhombus;whiteSpace=wrap;html=1;" vertex="1" parent="WIyWlLk6GJQsqaUBKTNV-1">
          <mxGeometry x="680" y="240" width="80" height="80" as="geometry" />
        </mxCell>
        <mxCell id="Q-2vObClX6s92BMSqMV8-18" value="" style="edgeStyle=orthogonalEdgeStyle;rounded=0;orthogonalLoop=1;jettySize=auto;html=1;" edge="1" parent="WIyWlLk6GJQsqaUBKTNV-1" source="Q-2vObClX6s92BMSqMV8-15">
          <mxGeometry relative="1" as="geometry">
            <mxPoint x="880" y="410" as="targetPoint" />
          </mxGeometry>
        </mxCell>
        <mxCell id="Q-2vObClX6s92BMSqMV8-15" value="&lt;p style=&quot;line-height: 120%;&quot;&gt;&lt;span style=&quot;font-size: 18px;&quot;&gt;:&lt;/span&gt;&lt;/p&gt;" style="rhombus;whiteSpace=wrap;html=1;" vertex="1" parent="WIyWlLk6GJQsqaUBKTNV-1">
          <mxGeometry x="840" y="240" width="80" height="80" as="geometry" />
        </mxCell>
        <mxCell id="Q-2vObClX6s92BMSqMV8-19" value="a*b" style="rounded=0;whiteSpace=wrap;html=1;" vertex="1" parent="WIyWlLk6GJQsqaUBKTNV-1">
          <mxGeometry x="660" y="410" width="120" height="60" as="geometry" />
        </mxCell>
        <mxCell id="Q-2vObClX6s92BMSqMV8-20" value="a:b" style="rounded=0;whiteSpace=wrap;html=1;" vertex="1" parent="WIyWlLk6GJQsqaUBKTNV-1">
          <mxGeometry x="820" y="410" width="120" height="60" as="geometry" />
        </mxCell>
        <mxCell id="Q-2vObClX6s92BMSqMV8-21" value="False" style="text;html=1;align=center;verticalAlign=middle;resizable=0;points=[];autosize=1;strokeColor=none;fillColor=none;" vertex="1" parent="WIyWlLk6GJQsqaUBKTNV-1">
          <mxGeometry x="450" y="258" width="50" height="30" as="geometry" />
        </mxCell>
        <mxCell id="Q-2vObClX6s92BMSqMV8-22" value="True" style="text;html=1;align=center;verticalAlign=middle;resizable=0;points=[];autosize=1;strokeColor=none;fillColor=none;" vertex="1" parent="WIyWlLk6GJQsqaUBKTNV-1">
          <mxGeometry x="360" y="340" width="50" height="30" as="geometry" />
        </mxCell>
        <mxCell id="Q-2vObClX6s92BMSqMV8-23" value="False" style="text;html=1;align=center;verticalAlign=middle;resizable=0;points=[];autosize=1;strokeColor=none;fillColor=none;" vertex="1" parent="WIyWlLk6GJQsqaUBKTNV-1">
          <mxGeometry x="777" y="258" width="50" height="30" as="geometry" />
        </mxCell>
        <mxCell id="Q-2vObClX6s92BMSqMV8-24" value="False" style="text;html=1;align=center;verticalAlign=middle;resizable=0;points=[];autosize=1;strokeColor=none;fillColor=none;" vertex="1" parent="WIyWlLk6GJQsqaUBKTNV-1">
          <mxGeometry x="610" y="258" width="50" height="30" as="geometry" />
        </mxCell>
        <mxCell id="Q-2vObClX6s92BMSqMV8-25" value="True" style="text;html=1;align=center;verticalAlign=middle;resizable=0;points=[];autosize=1;strokeColor=none;fillColor=none;" vertex="1" parent="WIyWlLk6GJQsqaUBKTNV-1">
          <mxGeometry x="680" y="340" width="50" height="30" as="geometry" />
        </mxCell>
        <mxCell id="Q-2vObClX6s92BMSqMV8-26" value="True" style="text;html=1;align=center;verticalAlign=middle;resizable=0;points=[];autosize=1;strokeColor=none;fillColor=none;" vertex="1" parent="WIyWlLk6GJQsqaUBKTNV-1">
          <mxGeometry x="510" y="340" width="50" height="30" as="geometry" />
        </mxCell>
        <mxCell id="Q-2vObClX6s92BMSqMV8-27" value="True" style="text;html=1;align=center;verticalAlign=middle;resizable=0;points=[];autosize=1;strokeColor=none;fillColor=none;" vertex="1" parent="WIyWlLk6GJQsqaUBKTNV-1">
          <mxGeometry x="840" y="340" width="50" height="30" as="geometry" />
        </mxCell>
        <mxCell id="Q-2vObClX6s92BMSqMV8-28" value="End" style="ellipse;whiteSpace=wrap;html=1;" vertex="1" parent="WIyWlLk6GJQsqaUBKTNV-1">
          <mxGeometry x="575" y="560" width="120" height="80" as="geometry" />
        </mxCell>
        <mxCell id="Q-2vObClX6s92BMSqMV8-29" value="" style="endArrow=classic;html=1;rounded=0;exitX=0.5;exitY=1;exitDx=0;exitDy=0;entryX=0;entryY=0.5;entryDx=0;entryDy=0;" edge="1" parent="WIyWlLk6GJQsqaUBKTNV-1" source="Q-2vObClX6s92BMSqMV8-3" target="Q-2vObClX6s92BMSqMV8-28">
          <mxGeometry width="50" height="50" relative="1" as="geometry">
            <mxPoint x="650" y="460" as="sourcePoint" />
            <mxPoint x="700" y="410" as="targetPoint" />
          </mxGeometry>
        </mxCell>
        <mxCell id="Q-2vObClX6s92BMSqMV8-30" value="" style="endArrow=classic;html=1;rounded=0;exitX=0.5;exitY=1;exitDx=0;exitDy=0;entryX=0;entryY=0;entryDx=0;entryDy=0;" edge="1" parent="WIyWlLk6GJQsqaUBKTNV-1" source="Q-2vObClX6s92BMSqMV8-9" target="Q-2vObClX6s92BMSqMV8-28">
          <mxGeometry width="50" height="50" relative="1" as="geometry">
            <mxPoint x="650" y="460" as="sourcePoint" />
            <mxPoint x="700" y="410" as="targetPoint" />
          </mxGeometry>
        </mxCell>
        <mxCell id="Q-2vObClX6s92BMSqMV8-31" value="" style="endArrow=classic;html=1;rounded=0;exitX=0.5;exitY=1;exitDx=0;exitDy=0;entryX=1;entryY=0;entryDx=0;entryDy=0;" edge="1" parent="WIyWlLk6GJQsqaUBKTNV-1" source="Q-2vObClX6s92BMSqMV8-19" target="Q-2vObClX6s92BMSqMV8-28">
          <mxGeometry width="50" height="50" relative="1" as="geometry">
            <mxPoint x="650" y="460" as="sourcePoint" />
            <mxPoint x="700" y="410" as="targetPoint" />
          </mxGeometry>
        </mxCell>
        <mxCell id="Q-2vObClX6s92BMSqMV8-32" value="" style="endArrow=classic;html=1;rounded=0;exitX=0.5;exitY=1;exitDx=0;exitDy=0;entryX=1;entryY=0.5;entryDx=0;entryDy=0;" edge="1" parent="WIyWlLk6GJQsqaUBKTNV-1" source="Q-2vObClX6s92BMSqMV8-20" target="Q-2vObClX6s92BMSqMV8-28">
          <mxGeometry width="50" height="50" relative="1" as="geometry">
            <mxPoint x="650" y="460" as="sourcePoint" />
            <mxPoint x="700" y="410" as="targetPoint" />
          </mxGeometry>
        </mxCell>
      </root>
    </mxGraphModel>
  </diagram>
</mxfile>
